<?xml version="1.0" encoding="UTF-8" standalone="no"?>
<!DOCTYPE svg PUBLIC "-//W3C//DTD SVG 1.1//EN"
 "http://www.w3.org/Graphics/SVG/1.1/DTD/svg11.dtd">
<!-- Generated by graphviz version 2.38.0 (20140413.2041)
 -->
<!-- Title: models_diagram Pages: 1 -->
<svg width="918pt" height="187pt"
 viewBox="0.00 0.00 918.00 187.00" xmlns="http://www.w3.org/2000/svg" xmlns:xlink="http://www.w3.org/1999/xlink">
<g id="graph0" class="graph" transform="scale(1 1) rotate(0) translate(4 183)">
<title>models_diagram</title>
<polygon fill="none" stroke="none" points="-4,4 -4,-183 914,-183 914,4 -4,4"/>
<!-- _diagram_info -->
<g id="node1" class="node"><title>_diagram_info</title>
<text text-anchor="start" x="8" y="-150.1" font-family="Times,serif" font-size="13.00">Models diagram</text>
<text text-anchor="start" x="8" y="-136.1" font-family="Times,serif" font-size="13.00">Date: Feb 22 2017 &#45; 11:04</text>
<text text-anchor="start" x="8" y="-122.1" font-family="Times,serif" font-size="13.00">Migration version: 20170222140105</text>
<text text-anchor="start" x="8" y="-108.1" font-family="Times,serif" font-size="13.00">Generated by RailRoady 1.5.2</text>
<text text-anchor="start" x="8" y="-94.1" font-family="Times,serif" font-size="13.00">http://railroady.prestonlee.com</text>
</g>
<!-- ApplicationRecord -->
<g id="node2" class="node"><title>ApplicationRecord</title>
<ellipse fill="none" stroke="black" cx="309" cy="-125.5" rx="77.1866" ry="18"/>
<text text-anchor="middle" x="309" y="-121.8" font-family="Times,serif" font-size="14.00">ApplicationRecord</text>
</g>
<!-- Category -->
<g id="node3" class="node"><title>Category</title>
<path fill="none" stroke="black" d="M416,-80C416,-80 636,-80 636,-80 642,-80 648,-86 648,-92 648,-92 648,-159 648,-159 648,-165 642,-171 636,-171 636,-171 416,-171 416,-171 410,-171 404,-165 404,-159 404,-159 404,-92 404,-92 404,-86 410,-80 416,-80"/>
<text text-anchor="middle" x="526" y="-155.8" font-family="Times,serif" font-size="14.00">Category</text>
<polyline fill="none" stroke="black" points="404,-148 648,-148 "/>
<text text-anchor="start" x="412" y="-132.8" font-family="Times,serif" font-size="14.00">id :integer</text>
<text text-anchor="start" x="412" y="-117.8" font-family="Times,serif" font-size="14.00">name :character varying</text>
<text text-anchor="start" x="412" y="-102.8" font-family="Times,serif" font-size="14.00">created_at :timestamp without time zone</text>
<text text-anchor="start" x="412" y="-87.8" font-family="Times,serif" font-size="14.00">updated_at :timestamp without time zone</text>
</g>
<!-- Item -->
<g id="node5" class="node"><title>Item</title>
<ellipse fill="none" stroke="black" cx="657" cy="-18" rx="27.0966" ry="18"/>
<text text-anchor="middle" x="657" y="-14.3" font-family="Times,serif" font-size="14.00">Item</text>
</g>
<!-- Category&#45;&gt;Item -->
<g id="edge1" class="edge"><title>Category&#45;&gt;Item</title>
<path fill="none" stroke="#0c914e" d="M587.799,-74.7308C603.632,-61.98 619.754,-48.9961 632.449,-38.7721"/>
<ellipse fill="none" stroke="#0c914e" cx="584.671" cy="-77.2496" rx="4.00002" ry="4.00002"/>
<polygon fill="#0c914e" stroke="#0c914e" points="632.471,-38.7546 643.082,-35.987 636.365,-35.6184 640.259,-32.4822 640.259,-32.4822 640.259,-32.4822 636.365,-35.6184 637.436,-28.9775 632.471,-38.7546 632.471,-38.7546"/>
</g>
<!-- User -->
<g id="node4" class="node"><title>User</title>
<path fill="none" stroke="black" d="M678,-72.5C678,-72.5 898,-72.5 898,-72.5 904,-72.5 910,-78.5 910,-84.5 910,-84.5 910,-166.5 910,-166.5 910,-172.5 904,-178.5 898,-178.5 898,-178.5 678,-178.5 678,-178.5 672,-178.5 666,-172.5 666,-166.5 666,-166.5 666,-84.5 666,-84.5 666,-78.5 672,-72.5 678,-72.5"/>
<text text-anchor="middle" x="788" y="-163.3" font-family="Times,serif" font-size="14.00">User</text>
<polyline fill="none" stroke="black" points="666,-155.5 910,-155.5 "/>
<text text-anchor="start" x="674" y="-140.3" font-family="Times,serif" font-size="14.00">id :integer</text>
<text text-anchor="start" x="674" y="-125.3" font-family="Times,serif" font-size="14.00">name :character varying</text>
<text text-anchor="start" x="674" y="-110.3" font-family="Times,serif" font-size="14.00">email :character varying</text>
<text text-anchor="start" x="674" y="-95.3" font-family="Times,serif" font-size="14.00">created_at :timestamp without time zone</text>
<text text-anchor="start" x="674" y="-80.3" font-family="Times,serif" font-size="14.00">updated_at :timestamp without time zone</text>
</g>
<!-- User&#45;&gt;Item -->
<g id="edge2" class="edge"><title>User&#45;&gt;Item</title>
<path fill="none" stroke="#3d96a4" d="M716.792,-67.1533C704.119,-56.9474 691.734,-46.9726 681.552,-38.7729"/>
<ellipse fill="none" stroke="#3d96a4" cx="720.152" cy="-69.8592" rx="4.00002" ry="4.00002"/>
<polygon fill="#3d96a4" stroke="#3d96a4" points="681.348,-38.6089 676.383,-28.8318 677.454,-35.4727 673.56,-32.3366 673.56,-32.3366 673.56,-32.3366 677.454,-35.4727 670.738,-35.8413 681.348,-38.6089 681.348,-38.6089"/>
</g>
</g>
</svg>
